name C:\Users\u0101727\Documents\MyRepositories\upper-imu-dc\Results\main_tracking\Case_45\FLX01_linearAccelerations_groundFrame.mot
datacolumns 4
datarows 141
range 3.50600000 4.34600000
endheader 
time	radius_imu_x	radius_imu_y	radius_imu_z	
          3.50600000	         -0.00110014	          9.75414355	          0.28308277	
          3.51200000	         -0.02338708	          9.75359212	          0.29681203	
          3.51800000	         -0.04446489	          9.75340203	          0.30719524	
          3.52400000	         -0.06420385	          9.75361179	          0.31409894	
          3.53000000	         -0.08250445	          9.75425231	          0.31746147	
          3.53600000	         -0.09928464	          9.75534520	          0.31729165	
          3.54200000	         -0.11449438	          9.75690329	          0.31368522	
          3.54800000	         -0.12809122	          9.75892859	          0.30681097	
          3.55400000	         -0.14004284	          9.76141259	          0.29691309	
          3.56000000	         -0.15031927	          9.76433521	          0.28430319	
          3.56600000	         -0.15888405	          9.76766562	          0.26935060	
          3.57200000	         -0.16569757	          9.77135831	          0.25247244	
          3.57800000	         -0.17070887	          9.77535590	          0.23411813	
          3.58400000	         -0.17385913	          9.77958753	          0.21475395	
          3.59000000	         -0.17507894	          9.78396742	          0.19484481	
          3.59600000	         -0.17429708	          9.78840321	          0.17484603	
          3.60200000	         -0.17142893	          9.79278699	          0.15517583	
          3.60800000	         -0.16639049	          9.79701080	          0.13621715	
          3.61400000	         -0.15909287	          9.80096387	          0.11830161	
          3.62000000	         -0.14944267	          9.80453806	          0.10170483	
          3.62600000	         -0.13735804	          9.80763677	          0.08664832	
          3.63200000	         -0.12275296	          9.81016314	          0.07328228	
          3.63800000	         -0.10554723	          9.81202987	          0.06170241	
          3.64400000	         -0.08566980	          9.81316160	          0.05194606	
          3.65000000	         -0.06306145	          9.81349600	          0.04399743	
          3.65600000	         -0.03767440	          9.81298209	          0.03779184	
          3.66200000	         -0.00947868	          9.81158673	          0.03322257	
          3.66800000	          0.02153889	          9.80928741	          0.03015028	
          3.67400000	          0.05536890	          9.80607356	          0.02841381	
          3.68000000	          0.09197408	          9.80194442	          0.02784188	
          3.68600000	          0.13128987	          9.79690458	          0.02826035	
          3.69200000	          0.17321120	          9.79096863	          0.02950724	
          3.69800000	          0.21759570	          9.78415731	          0.03142464	
          3.70400000	          0.26427365	          9.77649459	          0.03387857	
          3.71000000	          0.31303781	          9.76801752	          0.03674474	
          3.71600000	          0.36365618	          9.75876824	          0.03990301	
          3.72200000	          0.41587029	          9.74880648	          0.04324461	
          3.72800000	          0.46940493	          9.73819816	          0.04665662	
          3.73400000	          0.52397031	          9.72701862	          0.05002388	
          3.74000000	          0.57926271	          9.71534629	          0.05322633	
          3.74600000	          0.63497699	          9.70326409	          0.05613463	
          3.75200000	          0.69079727	          9.69085040	          0.05861839	
          3.75800000	          0.74641155	          9.67817679	          0.06053781	
          3.76400000	          0.80150824	          9.66530590	          0.06175130	
          3.77000000	          0.85578137	          9.65228528	          0.06211680	
          3.77600000	          0.90893325	          9.63915415	          0.06149435	
          3.78200000	          0.96068110	          9.62592572	          0.05974961	
          3.78800000	          1.01075591	          9.61260592	          0.05675499	
          3.79400000	          1.05890768	          9.59918826	          0.05239048	
          3.80000000	          1.10490979	          9.58566420	          0.04654497	
          3.80600000	          1.14855989	          9.57202472	          0.03911464	
          3.81200000	          1.18969403	          9.55827387	          0.03000792	
          3.81800000	          1.22817875	          9.54442407	          0.01914579	
          3.82400000	          1.26391608	          9.53050212	          0.00646896	
          3.83000000	          1.29684121	          9.51654810	         -0.00805647	
          3.83600000	          1.32692528	          9.50260649	         -0.02443247	
          3.84200000	          1.35417422	          9.48873091	         -0.04262439	
          3.84800000	          1.37862880	          9.47497107	         -0.06255666	
          3.85400000	          1.40036110	          9.46137303	         -0.08411176	
          3.86000000	          1.41947448	          9.44797304	         -0.10713315	
          3.86600000	          1.43610022	          9.43479901	         -0.13141875	
          3.87200000	          1.45039841	          9.42185936	         -0.15673809	
          3.87800000	          1.46254769	          9.40915048	         -0.18282123	
          3.88400000	          1.47273987	          9.39665160	         -0.20937071	
          3.89000000	          1.48117575	          9.38432212	         -0.23606748	
          3.89600000	          1.48806249	          9.37211237	         -0.26257126	
          3.90200000	          1.49361599	          9.35994528	         -0.28854222	
          3.90800000	          1.49805613	          9.34773802	         -0.31363517	
          3.91400000	          1.50160364	          9.33539568	         -0.33751238	
          3.92000000	          1.50447344	          9.32281206	         -0.35984738	
          3.92600000	          1.50686896	          9.30988134	         -0.38032519	
          3.93200000	          1.50897009	          9.29647482	         -0.39865335	
          3.93800000	          1.51092526	          9.28246511	         -0.41455654	
          3.94400000	          1.51284021	          9.26771710	         -0.42778384	
          3.95000000	          1.51477609	          9.25209479	         -0.43811423	
          3.95600000	          1.51674257	          9.23547630	         -0.44535816	
          3.96200000	          1.51871010	          9.21774945	         -0.44937377	
          3.96800000	          1.52059811	          9.19883242	         -0.45006310	
          3.97400000	          1.52228123	          9.17867586	         -0.44738063	
          3.98000000	          1.52359037	          9.15727163	         -0.44133552	
          3.98600000	          1.52430753	          9.13465301	         -0.43199166	
          3.99200000	          1.52418153	          9.11090388	         -0.41947085	
          3.99800000	          1.52291828	          9.08615166	         -0.40394549	
          4.00400000	          1.52019192	          9.06056910	         -0.38563386	
          4.01000000	          1.51564786	          9.03437073	         -0.36479137	
          4.01600000	          1.50891875	          9.00780596	         -0.34170307	
          4.02200000	          1.49962491	          8.98115588	         -0.31667005	
          4.02800000	          1.48739104	          8.95472394	         -0.28999918	
          4.03400000	          1.47184769	          8.92882981	         -0.26198813	
          4.04000000	          1.45263545	          8.90379825	         -0.23291407	
          4.04600000	          1.42942600	          8.87995933	         -0.20302455	
          4.05200000	          1.40190932	          8.85762427	         -0.17253000	
          4.05800000	          1.36981990	          8.83709648	         -0.14160286	
          4.06400000	          1.33293106	          8.81865954	         -0.11037853	
          4.07000000	          1.29106826	          8.80256959	         -0.07896352	
          4.07600000	          1.24411611	          8.78906674	         -0.04743753	
          4.08200000	          1.19203929	          8.77833801	         -0.01587380	
          4.08800000	          1.13488065	          8.77054427	          0.01566531	
          4.09400000	          1.07277195	          8.76579857	          0.04711731	
          4.10000000	          1.00594859	          8.76416230	          0.07841794	
          4.10600000	          0.93473488	          8.76565463	          0.10951396	
          4.11200000	          0.85958139	          8.77020313	          0.14034253	
          4.11800000	          0.78103200	          8.77769860	          0.17086664	
          4.12400000	          0.69972054	          8.78794928	          0.20105492	
          4.13000000	          0.61636888	          8.80071758	          0.23089884	
          4.13600000	          0.53175570	          8.81570793	          0.26040654	
          4.14200000	          0.44672671	          8.83259070	          0.28960686	
          4.14800000	          0.36214875	          8.85099536	          0.31853955	
          4.15400000	          0.27890364	          8.87052491	          0.34724822	
          4.16000000	          0.19786427	          8.89076587	          0.37577610	
          4.16600000	          0.11986924	          8.91128082	          0.40415111	
          4.17200000	          0.04571372	          8.93163331	          0.43238624	
          4.17800000	         -0.02386985	          8.95137912	          0.46045989	
          4.18400000	         -0.08822409	          8.97007960	          0.48830750	
          4.19000000	         -0.14678389	          8.98731219	          0.51581413	
          4.19600000	         -0.19907687	          9.00267510	          0.54279431	
          4.20200000	         -0.24476096	          9.01581385	          0.56900741	
          4.20800000	         -0.28361393	          9.02641581	          0.59413406	
          4.21400000	         -0.31555580	          9.03422846	          0.61779091	
          4.22000000	         -0.34066310	          9.03906505	          0.63954273	
          4.22600000	         -0.35915235	          9.04080949	          0.65890233	
          4.23200000	         -0.37142330	          9.03943146	          0.67538982	
          4.23800000	         -0.37800708	          9.03498256	          0.68852769	
          4.24400000	         -0.37957170	          9.02759933	          0.69788974	
          4.25000000	         -0.37689107	          9.01752042	          0.70314417	
          4.25600000	         -0.37081189	          9.00505721	          0.70405576	
          4.26200000	         -0.36225808	          8.99061006	          0.70055741	
          4.26800000	         -0.35215590	          8.97464057	          0.69272151	
          4.27400000	         -0.34140829	          8.95766343	          0.68077988	
          4.28000000	         -0.33085207	          8.94020800	          0.66509322	
          4.28600000	         -0.32123707	          8.92280271	          0.64615114	
          4.29200000	         -0.31316118	          8.90595414	          0.62453150	
          4.29800000	         -0.30709780	          8.89011477	          0.60088971	
          4.30400000	         -0.30336978	          8.87567519	          0.57592849	
          4.31000000	         -0.30215538	          8.86294014	          0.55036784	
          4.31600000	         -0.30351670	          8.85213800	          0.52495302	
          4.32200000	         -0.30738155	          8.84336634	          0.50037023	
          4.32800000	         -0.31359149	          8.83663723	          0.47728400	
          4.33400000	         -0.32190815	          8.83185526	          0.45628143	
          4.34000000	         -0.33203292	          8.82882208	          0.43784824	
          4.34600000	         -0.34363748	          8.82728205	          0.42238893	
